<svg xmlns="http://www.w3.org/2000/svg" viewBox="0 0 204.55 203.38"><defs><style>.cls-1{fill:#096d25;}.cls-2{fill:#01961d;}.cls-3{fill:#0d7c22;}.cls-4{fill:#3d964e;}.cls-5{fill:#627b68;}.cls-6{fill:#4c6b53;}.cls-7{fill:#084911;}</style></defs><title>grass-tile-1</title><g id="Layer_2" data-name="Layer 2"><g id="Layer_1-2" data-name="Layer 1"><polyline class="cls-1" points="203.38 0 203.38 203.38 0 203.38 0 0"/><path class="cls-2" d="M34.26,161.11c-.61-1.65,7.44-47.87,7.44-47.87L82.84,95.58"/><path class="cls-3" d="M83.49,74c-.84-1.55.81-48.44.81-48.44L122.63,2.48"/><path class="cls-3" d="M92.82,75.71c-.57-1.07,0-23.72.47-37.67a19.74,19.74,0,0,1,9.55-16.32L132,4.14"/><path class="cls-3" d="M151,142.18c-.57-1.08,0-23.73.47-37.67A19.77,19.77,0,0,1,161,88.18l29.13-17.57"/><path class="cls-3" d="M14.77,186.88c-.83-1.55.82-48.44.82-48.44l38.33-23.12"/><path class="cls-3" d="M4.91,165.71c-.83-1.56.82-48.44.82-48.44L44.06,94.14"/><path class="cls-4" d="M82.35,127.14c0-1.76,23.53-42.35,23.53-42.35l44.71-2.35"/><path class="cls-3" d="M58.53,169.33c0-1.76,23.53-42.35,23.53-42.35l44.7-2.35"/><path class="cls-3" d="M22.21,133.65c0-1.76,23.53-42.35,23.53-42.35L90.44,89"/><path class="cls-2" d="M138.13,148.45c-.84-1.56.81-48.44.81-48.44l38.33-23.13"/><path class="cls-5" d="M103,171.47c-.94-1.49-2.77-48.37-2.77-48.37l36.51-25.9"/><path class="cls-4" d="M74.8,192.94c-1-1.49-2.78-48.37-2.78-48.37l36.51-25.9"/><path class="cls-2" d="M110.88,190.21c0-1.76,23.53-42.35,23.53-42.35l44.7-2.35"/><polygon class="cls-6" points="116.47 89.34 125.29 41.1 153.53 26.99 131.76 53.46 116.47 89.34"/><polygon class="cls-6" points="51.92 178.16 60.75 129.92 88.98 115.81 67.22 142.28 51.92 178.16"/><polygon class="cls-6" points="35.39 186.98 44.21 138.75 72.45 124.63 50.68 151.1 35.39 186.98"/><polygon class="cls-6" points="30.16 182.27 38.98 134.04 67.22 119.92 45.45 146.39 30.16 182.27"/><polygon class="cls-4" points="130.15 104.34 138.97 56.1 167.2 41.99 145.44 68.45 130.15 104.34"/><polygon class="cls-4" points="120.15 99.04 128.97 50.81 157.2 36.69 135.44 63.16 120.15 99.04"/><polygon class="cls-4" points="142.82 104.34 151.65 56.1 179.88 41.99 158.12 68.45 142.82 104.34"/><polygon class="cls-4" points="90.01 100.51 98.83 52.28 127.06 38.16 105.3 64.63 90.01 100.51"/><polygon class="cls-4" points="91.77 112.86 100.59 64.63 128.82 50.52 107.06 76.98 91.77 112.86"/><polygon class="cls-4" points="102.94 161.1 111.77 112.86 140 98.75 118.23 125.22 102.94 161.1"/><polygon class="cls-4" points="175.5 118.68 184.32 70.44 197.79 41.99 176.03 68.45 175.5 118.68"/><polygon class="cls-4" points="180.71 136.38 189.53 88.15 203 59.69 181.24 86.16 180.71 136.38"/><polygon class="cls-4" points="175.23 137.39 184.06 89.15 197.52 60.7 175.76 87.17 175.23 137.39"/><polygon class="cls-3" points="63.97 92.28 72.8 44.05 81.72 20.41 59.95 46.88 63.97 92.28"/><polygon class="cls-3" points="54.21 88.8 63.03 40.57 71.95 16.93 50.19 43.4 54.21 88.8"/><polygon class="cls-3" points="40.21 85.38 49.03 37.14 57.95 13.51 36.19 39.98 40.21 85.38"/><polygon class="cls-3" points="115.36 124.57 153.47 61.37 67.27 49.69 36.96 91.07 115.36 124.57"/><polygon class="cls-3" points="153.74 200.39 191.85 137.19 105.65 125.52 75.34 166.89 153.74 200.39"/><polygon class="cls-3" points="160.14 176.77 198.25 113.57 112.05 101.9 81.74 143.27 160.14 176.77"/><polygon class="cls-3" points="150.58 162.95 188.69 99.75 102.49 88.07 72.19 129.45 150.58 162.95"/><polygon class="cls-3" points="12.8 73.16 21.62 24.93 49.86 10.81 28.09 37.28 12.8 73.16"/><polygon class="cls-2" points="84.68 118.28 70 90.78 70.86 68.66 86.65 98.23 84.68 118.28"/><polygon class="cls-4" points="13.97 131.71 13.97 100.54 56.92 64.36 43.98 131.13 13.97 131.71"/><polygon class="cls-6" points="95.22 146.98 95.22 115.81 106.39 97.57 106.39 131.1 95.22 146.98"/><polygon class="cls-6" points="86.91 48.75 86.91 17.57 78.99 34.63 78.99 68.16 86.91 48.75"/><polygon class="cls-6" points="54.99 55.52 54.99 24.34 47.07 41.4 47.07 74.93 54.99 55.52"/><polygon class="cls-5" points="88.38 94.04 88.38 62.87 99.56 44.63 99.56 78.16 88.38 94.04"/><polygon class="cls-2" points="113.82 194.04 88.38 151.1 136.18 104.34 136.18 137.86 113.82 194.04"/><polygon class="cls-7" points="35.44 59.93 48.38 27.57 92.5 6.99 61.33 33.46 35.44 59.93"/><polygon class="cls-4" points="101.62 60.81 114.56 28.46 158.67 7.87 127.5 34.34 101.62 60.81"/><polygon class="cls-7" points="124.46 103.45 137.4 71.1 181.52 50.52 167.3 91.1 124.46 103.45"/><polygon class="cls-7" points="8.44 180.22 21.38 147.86 65.49 127.28 51.27 167.86 8.44 180.22"/><polygon class="cls-7" points="88.95 115.81 101.89 83.45 146 62.87 114.83 89.34 88.95 115.81"/><polygon class="cls-4" points="13.9 108.16 26.84 75.81 70.96 55.22 39.78 81.69 13.9 108.16"/><polygon class="cls-3" points="72.28 102.57 85.22 70.22 129.34 49.63 98.16 76.1 72.28 102.57"/><polygon class="cls-6" points="147.5 186.39 160.44 154.04 204.56 133.45 173.38 159.92 147.5 186.39"/><polygon class="cls-3" points="156.8 140.33 183.63 118.1 97.57 138.55 57.53 146.89 156.8 140.33"/><polygon class="cls-7" points="27.8 73.75 17.8 54.93 31.33 34.34 35.44 54.04 27.8 73.75"/><polygon class="cls-4" points="180.44 52.87 170.44 34.05 183.97 13.46 188.09 33.16 180.44 52.87"/><polygon class="cls-4" points="168.38 64.34 158.38 45.52 171.91 24.93 176.03 44.63 168.38 64.34"/><polygon class="cls-4" points="178.73 79.63 168.73 60.81 182.26 40.22 186.38 59.93 178.73 79.63"/><polygon class="cls-4" points="154.91 64.34 144.91 45.52 158.44 24.93 162.56 44.63 154.91 64.34"/><polygon class="cls-4" points="38.14 191.18 28.14 172.35 41.67 151.76 45.79 171.47 38.14 191.18"/><polygon class="cls-4" points="51.03 185.51 41.03 166.69 54.56 146.1 58.68 165.8 51.03 185.51"/><polygon class="cls-4" points="62.24 180.8 52.24 161.98 65.77 141.39 69.89 161.1 62.24 180.8"/><polygon class="cls-5" points="137.35 153.16 127.35 134.34 140.88 113.75 145 133.45 137.35 153.16"/><polygon class="cls-4" points="154.52 152.06 144.52 133.24 158.05 112.65 162.16 132.36 154.52 152.06"/><polygon class="cls-3" points="32.5 115.51 22.5 96.69 36.03 76.1 40.15 95.81 32.5 115.51"/><polygon class="cls-3" points="32.5 96.69 22.5 77.87 36.03 57.28 40.15 76.98 32.5 96.69"/><polygon class="cls-6" points="136.18 127.86 126.18 109.04 139.71 88.45 143.82 108.16 136.18 127.86"/></g></g></svg>