<svg xmlns="http://www.w3.org/2000/svg" viewBox="0 0 204.38 204.38"><defs><style>.cls-1{fill:#939393;}.cls-1,.cls-2{stroke:#000;stroke-miterlimit:10;}.cls-2{fill:#b7b7b7;}</style></defs><title>path-tile-1</title><g id="Layer_2" data-name="Layer 2"><g id="Layer_1-2" data-name="Layer 1"><polygon class="cls-1" points="203.88 203.88 0.5 203.88 0.5 0.5 16.03 0.5 203.88 0.5 203.88 203.88"/><polygon class="cls-2" points="23.09 106.36 10.74 84.6 37.2 67.54 43.68 75.19 50.73 106.36 37.79 114.01 23.09 106.36"/><path class="cls-2" d="M123.67,38.13c-1.17,1.76-21.48,21.76-21.48,21.76L106,85.18,126.61,94l21.77-18.24V50.48Z"/><polygon class="cls-2" points="20.73 111.07 37.2 118.71 37.2 144.59 20.73 154 5.44 132.54 20.73 111.07"/><polygon class="cls-2" points="152.49 79.89 130.73 97.54 135.44 122.83 164.85 104.6 152.49 79.89"/><polygon class="cls-2" points="95.44 197.53 72.5 171.06 95.44 145.18 125.28 154 127.79 180.47 95.44 197.53"/><polygon class="cls-2" points="130.73 154 133.67 178.71 154.26 186.94 171.32 170.47 171.32 148.12 147.79 137.53 130.73 154"/><polygon class="cls-2" points="153.67 52.24 153.67 72.24 168.38 98.13 193.08 90.77 193.08 57.54 153.67 52.24"/><polygon class="cls-2" points="44.26 117.54 44.26 142.83 70.14 132.54 70.14 111.07 62.5 104.6 44.26 117.54"/><polygon class="cls-2" points="61.32 15.78 44.26 35.19 57.2 59.3 78.38 59.3 91.91 42.83 61.32 15.78"/><polygon class="cls-2" points="68.09 13.42 94.26 38.13 125.28 25.78 125.28 11.66 91.91 6.37 68.09 13.42"/><polygon class="cls-2" points="57.2 13.42 40.15 31.66 21.32 24.6 28.38 4.01 57.2 4.01 57.2 13.42"/><polygon class="cls-2" points="27.79 171.36 16.03 184 27.79 197.53 50.73 191.06 53.09 171.36 27.79 171.36"/><polygon class="cls-2" points="50.73 75.19 57.2 98.13 72.5 104.6 87.2 84.01 77.2 66.07 57.2 66.07 50.73 75.19"/><polygon class="cls-2" points="76.03 111.07 76.03 132.54 91.91 142.83 104.85 114.01 76.03 111.07"/><polygon class="cls-2" points="108.97 116.36 100.14 140.48 127.79 149.3 138.97 137.53 127.79 114.01 108.97 116.36"/><polygon class="cls-2" points="91.91 88.71 80.14 104.6 104.85 111.07 125.28 107.54 125.28 98.13 104.85 88.71 91.91 88.71"/><polygon class="cls-2" points="82.27 67.35 90.51 81.17 98.74 81.17 95.28 47.64 82.27 64.41 82.27 67.35"/><polygon class="cls-2" points="72.5 137.53 87.2 145.18 70.14 166.36 34.56 166.36 34.56 151.95 72.5 137.53"/><polygon class="cls-2" points="130.73 13.42 130.73 26.95 127.79 34.6 148.38 46.36 190.73 52.24 197.2 26.95 162.49 6.37 130.73 13.42"/><polygon class="cls-2" points="138.97 126.95 142.5 132.54 168.96 142.83 184.26 131.65 184.26 108.71 171.32 104.6 138.97 126.95"/><polygon class="cls-2" points="57.2 171.36 60.88 191.06 83.67 194.59 57.2 171.36"/><polygon class="cls-2" points="53.09 63.13 47.2 67.54 16.03 49.89 16.03 29.3 37.2 37.54 53.09 63.13"/><polygon class="cls-2" points="111.91 197.53 134.26 184.44 168.38 197.53 111.91 197.53"/><polygon class="cls-2" points="173.67 174 159.26 186.94 173.67 194.59 190.73 192.83 197.2 174 178.23 164 173.67 174"/><polygon class="cls-2" points="5.44 52.24 5.44 79.89 26.62 67.54 26.62 59.3 5.44 52.24"/><polygon class="cls-2" points="189.55 111.07 189.55 126.95 199.55 138.12 199.55 98.71 189.55 111.07"/></g></g></svg>